<svg xmlns="http://www.w3.org/2000/svg" xmlns:xlink="http://www.w3.org/1999/xlink" width="200" height="78" viewBox="0 0 200 78">
    <defs>
        <path id="a" d="M0 77.698h200V0H0z"/>
    </defs>
    <g fill="none" fill-rule="evenodd">
        <path fill="#FEFEFE" d="M20.424 53.396h3.595v-28.87h-3.595zM30.76 53.396v-28.87h3.677l16.611 22.55v-22.55h3.593v28.87h-3.466L34.353 30.36v23.036z"/>
        <g>
            <path fill="#FEFEFE" d="M59.65 49.314l2.156-2.774c1.043 1.214 2.335 2.213 3.878 2.997 1.544.783 3.264 1.176 5.168 1.176 1.225 0 2.3-.157 3.222-.468.923-.31 1.636-.72 2.135-1.227.5-.508.866-1.042 1.098-1.597a4.469 4.469 0 0 0 .35-1.749c0-.79-.193-1.485-.58-2.085a4.44 4.44 0 0 0-1.572-1.46 10.727 10.727 0 0 0-2.293-.941c-.866-.255-1.77-.52-2.711-.794l-2.823-.826a17.684 17.684 0 0 1-2.692-1.03 11.172 11.172 0 0 1-2.27-1.433c-.664-.546-1.19-1.246-1.576-2.103-.387-.856-.581-1.837-.581-2.942 0-2.357.94-4.282 2.821-5.777 1.88-1.494 4.26-2.24 7.134-2.24 4.226 0 7.629 1.345 10.207 4.039l-2.155 2.646c-2.043-2.315-4.826-3.474-8.348-3.474-1.72 0-3.139.432-4.26 1.294-1.119.862-1.68 1.977-1.68 3.345 0 .696.194 1.31.578 1.837.386.527.908.959 1.567 1.294.66.334 1.418.627 2.278.88.86.252 1.764.517 2.712.793.948.278 1.892.556 2.835.83.94.275 1.839.635 2.692 1.075.855.442 1.613.953 2.276 1.534.663.582 1.19 1.321 1.577 2.216.389.896.583 1.92.583 3.068a8.198 8.198 0 0 1-.592 3.11c-.394.975-.992 1.874-1.797 2.698-.803.826-1.912 1.48-3.328 1.969-1.416.486-3.06.73-4.935.73-2.38 0-4.505-.412-6.371-1.237-1.868-.826-3.435-1.95-4.702-3.374"/>
            <mask id="b" fill="#fff">
                <use xlink:href="#a"/>
            </mask>
            <path fill="#FEFEFE" d="M86.744 53.396h3.594v-28.87h-3.594zM97.068 45.103c-.782-1.88-1.171-3.924-1.171-6.127 0-2.204.39-4.246 1.17-6.125.782-1.877 1.838-3.456 3.17-4.738 1.33-1.28 2.904-2.279 4.72-2.997 1.817-.717 3.745-1.075 5.787-1.075 4.594 0 8.353 1.787 11.273 5.363l-2.906 1.816c-.931-1.21-2.137-2.175-3.612-2.891-1.474-.718-3.06-1.076-4.755-1.076-3.187 0-5.839 1.093-7.954 3.282-2.116 2.187-3.174 4.997-3.174 8.428 0 2.254.486 4.281 1.459 6.087.973 1.806 2.306 3.207 3.999 4.207 1.693.999 3.582 1.498 5.67 1.498 1.594 0 3.082-.308 4.465-.924 1.383-.616 2.496-1.348 3.344-2.198v-5.881h-9.892v-3.213h13.483v10.432a15.177 15.177 0 0 1-5.029 3.663c-1.95.89-4.073 1.332-6.371 1.332-2.042 0-3.97-.362-5.787-1.089-1.816-.725-3.39-1.732-4.72-3.02-1.332-1.29-2.388-2.873-3.17-4.754M127.934 53.396v-28.87h3.594v12.407h16.865V24.527h3.593v28.869h-3.593v-13.25h-16.865v13.25zM156.762 27.738v-3.211h21.895v3.211h-9.172v25.658h-3.593V27.738z" mask="url(#b)"/>
            <path fill="#A3A5A3" d="M191.367 69.065H200v-8.633h-8.633z" mask="url(#b)"/>
            <path fill="#FEFEFE" d="M191.367 77.698H200v-8.633h-8.633z" mask="url(#b)"/>
            <path fill="#7F827F" d="M182.734 77.698h8.633v-8.633h-8.633zM0 17.266h8.633V8.633H0z" mask="url(#b)"/>
            <path fill="#FEFEFE" d="M0 8.633h8.633V0H0z" mask="url(#b)"/>
            <path fill="#A3A5A3" d="M8.633 8.633h8.633V0H8.633z" mask="url(#b)"/>
        </g>
    </g>
</svg>
